<?xml version="1.0" encoding="UTF-8"?>
<svg version="1.1" xmlns="http://www.w3.org/2000/svg" width="512" height="512">
<path d="M0 0 C3.21128172 1.57147829 5.49895464 3.51698468 8.0625 5.98828125 C20.35522606 17.69467662 35.93600008 24.86240001 53 26 C53.70640625 26.0515625 54.4128125 26.103125 55.140625 26.15625 C73.84864023 26.89961484 92.5507405 19.85460578 106.3125 7.3125 C107.48232422 6.19294922 107.48232422 6.19294922 108.67578125 5.05078125 C113.07210872 1.17166877 116.56594701 -0.76370623 122.42578125 -0.53125 C144.08061945 3.93773027 165.9810581 30.91141461 177.33374023 48.11376953 C189.84757011 67.62743913 201.23271586 93.31025406 198 117 C195.33369735 125.83212752 190.18870592 132.56040931 182.109375 137.05078125 C175.7343435 139.97498048 169.67746072 140.1473149 162.81025696 140.14044189 C161.88199055 140.14341302 160.95372415 140.14638414 159.99732846 140.1494453 C156.88533549 140.15812021 153.77338105 140.15963953 150.66137695 140.16113281 C148.43058693 140.16576185 146.19979771 140.17078663 143.9690094 140.17617798 C137.9068442 140.18929604 131.84469008 140.19574584 125.7825129 140.20018864 C121.99417424 140.20312044 118.20583859 140.20722546 114.41750145 140.21169281 C103.91998231 140.22380019 93.42246496 140.23418262 82.92493916 140.2375679 C82.25351502 140.23778747 81.58209088 140.23800703 80.89032055 140.23823325 C79.88083098 140.23856067 79.88083098 140.23856067 78.85094768 140.2388947 C77.48730171 140.23933816 76.12365574 140.23978472 74.76000977 140.24023438 C73.74539543 140.24056652 73.74539543 140.24056652 72.71028384 140.24090537 C61.75656425 140.24485115 50.80291127 140.26229954 39.84921739 140.2855939 C28.5918262 140.30934001 17.33446722 140.32151355 6.07704705 140.32293582 C-0.2389595 140.32398329 -6.55487207 140.32987895 -12.87085533 140.34775543 C-18.81424046 140.36425007 -24.7574611 140.36638474 -30.70086098 140.35761642 C-32.87845933 140.35684679 -35.05606657 140.361179 -37.23364258 140.37107468 C-40.21440246 140.3838225 -43.19458227 140.37790178 -46.17533875 140.36749268 C-47.02993594 140.37554908 -47.88453314 140.38360548 -48.76502723 140.39190602 C-58.36337463 140.31391786 -67.06959651 137.88578716 -74 131 C-81.76273499 121.21895391 -83.22358438 112.1890669 -82 100 C-80.90690119 93.51428037 -79.0172305 87.24993194 -77 81 C-76.77538086 80.29456055 -76.55076172 79.58912109 -76.31933594 78.86230469 C-66.2823193 48.07919835 -44.59122701 22.8411224 -18 5 C-17.14921875 4.42507812 -16.2984375 3.85015625 -15.421875 3.2578125 C-10.35212127 0.12023764 -5.947807 -1.18048078 0 0 Z M-27 45 C-41.9128016 60.94681712 -56.59064343 85.10896148 -57.3125 107.5625 C-57.34988281 108.32691406 -57.38726562 109.09132813 -57.42578125 109.87890625 C-57.17184044 112.0902045 -57.17184044 112.0902045 -55.52851868 113.60875893 C-51.82959596 115.64397949 -48.23279164 115.41337035 -44.11791992 115.38095093 C-43.21077586 115.3856309 -42.3036318 115.39031087 -41.36899853 115.39513266 C-38.32267418 115.40711953 -35.27679662 115.39761093 -32.23046875 115.38818359 C-30.04920183 115.39224765 -27.86793697 115.39758859 -25.68667603 115.40411377 C-19.7570302 115.41781287 -13.82754062 115.41247797 -7.897892 115.40297651 C-1.69909487 115.39539337 4.49968868 115.40242178 10.69848633 115.40713501 C21.77651704 115.41294654 32.85447847 115.40361009 43.9324981 115.388357 C53.978146 115.37495361 64.02368991 115.37728164 74.06933594 115.39111328 C85.73324632 115.40710925 97.39709161 115.41314511 109.06101131 115.40427649 C115.2359816 115.39959383 121.41088023 115.39899142 127.58584595 115.40888596 C133.3905108 115.41753705 139.19497881 115.41156761 144.99962234 115.39420319 C147.13296812 115.39022842 149.26633039 115.39138923 151.39966965 115.39799118 C154.30597852 115.40615757 157.21165183 115.39594442 160.11791992 115.38095093 C160.9673306 115.38764309 161.81674128 115.39433526 162.69189167 115.40123022 C166.07310094 115.36726561 168.53651951 115.25705195 171.52632141 113.59887123 C173.40312008 111.56263387 173.48237223 110.58418204 173.375 107.84375 C173.15815087 103.2151428 172.28688195 98.93996726 171 94.5 C170.66995972 93.34540283 170.66995972 93.34540283 170.33325195 92.16748047 C162.71530528 66.83632241 145.35095777 41.21752327 122 28 C120.87078125 28.8353125 120.87078125 28.8353125 119.71875 29.6875 C95.92435307 46.78250362 69.62703669 54.19554843 40.35180664 49.47851562 C23.70890495 46.48993563 8.5745771 39.62908526 -4.64453125 29.03125 C-9.13419839 25.61548019 -23.43317262 41.49438183 -27 45 Z " fill="#fff" transform="translate(198,240)"/>
<path d="M0 0 C12.0753336 10.25025234 20.05053877 23.66798896 21.90625 39.5546875 C23.27023255 56.37713901 19.13889904 72.2472924 8.1171875 85.23144531 C0.30204515 94.02348045 -8.89256543 99.88851031 -20.09375 103.5546875 C-20.774375 103.78027344 -21.455 104.00585938 -22.15625 104.23828125 C-37.05284513 108.32920226 -53.79287686 105.54784576 -67.18359375 98.33203125 C-81.8161077 89.39539521 -91.30755805 76.56109705 -95.34375 59.8671875 C-97.9485764 44.68815366 -95.97816376 28.56034262 -87.9765625 15.2109375 C-77.87751193 0.96331428 -64.35040214 -9.12407927 -46.8359375 -12.125 C-29.8745327 -14.10624671 -13.53800346 -10.70049263 0 0 Z M-63.09375 23.5546875 C-69.59847827 32.2369643 -72.02932545 40.77329422 -71.09375 51.5546875 C-69.1845707 62.43219648 -62.88252312 70.13343272 -54.09375 76.5546875 C-45.75945176 81.25564498 -36.12812921 81.82890856 -26.96875 79.4296875 C-18.19436397 76.47742929 -10.57644939 69.72914356 -6.02734375 61.6640625 C-2.01412433 52.74579711 -1.96660098 43.14403831 -5.0546875 33.9375 C-9.13981922 24.56934079 -16.73338081 18.2090525 -25.98046875 14.31640625 C-39.30976238 9.51194736 -53.30331208 13.53567905 -63.09375 23.5546875 Z " fill="#fff" transform="translate(295.09375,144.4453125)"/>
<path d="M0 0 C7.92 0 15.84 0 24 0 C24.11417188 7.7556077 24.20537599 15.51073395 24.25906086 23.26695728 C24.28486173 26.87076 24.3196971 30.47394518 24.37719727 34.07739258 C24.8350332 63.56899735 20.53745506 87.12530137 1 110 C0.43925781 110.66257812 -0.12148438 111.32515625 -0.69921875 112.0078125 C-14.52318836 126.98087783 -35.08617194 136.13491695 -55 139 C-57.15351147 139.08318298 -59.3092424 139.11785293 -61.46435547 139.11352539 C-62.72520966 139.11344986 -63.98606384 139.11337433 -65.28512573 139.11329651 C-66.6458134 139.10819109 -68.00650065 139.10297511 -69.3671875 139.09765625 C-70.77108713 139.09578912 -72.17498742 139.09436661 -73.57888794 139.09336853 C-77.25807522 139.08956658 -80.93722248 139.07975633 -84.61639404 139.06866455 C-88.37706969 139.05840031 -92.13775186 139.0538602 -95.8984375 139.04882812 C-103.26564528 139.03813179 -110.63281191 139.02055401 -118 139 C-118 130.75 -118 122.5 -118 114 C-115.32245605 113.97812622 -115.32245605 113.97812622 -112.59082031 113.95581055 C-106.64754511 113.90385459 -100.70453964 113.83848997 -94.76150894 113.76428509 C-91.16345778 113.7198381 -87.56551318 113.68052826 -83.96728516 113.65356445 C-80.48517426 113.62727163 -77.00347932 113.58669388 -73.52162933 113.53681374 C-71.56784061 113.51237196 -69.6138901 113.50216808 -67.65997314 113.49235535 C-56.78209982 113.31591688 -46.73806852 111.46910474 -37 106.5 C-36.328479 106.15888184 -35.65695801 105.81776367 -34.96508789 105.46630859 C-19.68531947 97.29362029 -9.59230976 83.48990991 -4.0625 67.24609375 C-1.08475126 57.18187567 -0.8592088 46.86199242 -0.68359375 36.42578125 C-0.6524221 34.85101265 -0.6524221 34.85101265 -0.62062073 33.24443054 C-0.55592029 29.93384511 -0.49661514 26.62318939 -0.4375 23.3125 C-0.39423891 21.05012332 -0.35062238 18.78775341 -0.30664062 16.52539062 C-0.19966194 11.01699759 -0.10000056 5.50854168 0 0 Z " fill="#fff" transform="translate(456,338)"/>
<path d="M0 0 C7.92 0 15.84 0 24 0 C24.04898438 3.279375 24.09796875 6.55875 24.1484375 9.9375 C24.20268461 13.16800911 24.25989809 16.39845331 24.31738281 19.62890625 C24.3553038 21.84760559 24.39021558 24.06635873 24.421875 26.28515625 C24.81491269 53.50301639 26.59080739 76.80157358 47 97 C60.5252938 109.44780708 77.64813503 113.42198673 95.515625 113.51171875 C96.86612527 113.52861342 98.21661027 113.54676986 99.56707764 113.56611633 C103.07842227 113.61310427 106.58970506 113.64324137 110.10125732 113.66955566 C113.70174378 113.69962364 117.30201784 113.74606183 120.90234375 113.79101562 C127.93478654 113.87646386 134.96726453 113.94254716 142 114 C142 122.25 142 130.5 142 139 C134.02760402 139.06825082 126.05544184 139.12308637 118.08283043 139.15543652 C114.37932707 139.17097659 110.67603694 139.1919963 106.97265625 139.22631836 C103.38699934 139.25933477 99.80154523 139.2769402 96.21574783 139.28463173 C94.20759635 139.29273018 92.19952445 139.31607866 90.1914978 139.33988953 C64.04605871 139.34459048 42.01620547 128.39057244 23.5 110.59765625 C6.98827587 93.36927742 -0.57613961 70.74279453 -0.29296875 47.16796875 C-0.28735466 45.79649832 -0.28309317 44.42502176 -0.28010559 43.05354309 C-0.26879905 39.49102363 -0.23945966 35.92888708 -0.20599365 32.36651611 C-0.17498141 28.71249568 -0.16153459 25.05841174 -0.14648438 21.40429688 C-0.11457177 14.2693621 -0.0619253 7.13474677 0 0 Z " fill="#fff" transform="translate(32,338)"/>
<path d="M0 0 C7.97239598 -0.06825082 15.94455816 -0.12308637 23.91716957 -0.15543652 C27.62067293 -0.17097659 31.32396306 -0.1919963 35.02734375 -0.22631836 C38.61300066 -0.25933477 42.19845477 -0.2769402 45.78425217 -0.28463173 C47.79240365 -0.29273018 49.80047555 -0.31607866 51.8085022 -0.33988953 C75.18474359 -0.34409258 96.65148992 8.44230387 114 24 C114.63421875 24.55171875 115.2684375 25.1034375 115.921875 25.671875 C130.61136398 39.28323635 140.80832216 60.63590588 142.25823975 80.54614258 C142.58707965 89.37962411 142.48432239 98.2092398 142.34332275 107.04547119 C142.29131548 110.65971943 142.26915859 114.27415392 142.24414062 117.88867188 C142.19120506 124.92626557 142.10359395 131.96294233 142 139 C134.08 139 126.16 139 118 139 C117.95101562 135.720625 117.90203125 132.44125 117.8515625 129.0625 C117.79731539 125.83199089 117.74010191 122.60154669 117.68261719 119.37109375 C117.6446962 117.15239441 117.60978442 114.93364127 117.578125 112.71484375 C117.20745968 87.04627013 116.01045262 64.09882296 97.46875 44.3828125 C83.05045959 30.4664246 66.31869663 25.76121135 46.77734375 25.5859375 C45.4225603 25.56719032 44.06778809 25.54761437 42.71302795 25.5272522 C39.1769987 25.47629924 35.64093173 25.43647859 32.10473633 25.39910889 C28.48444578 25.35883586 24.86430704 25.30785083 21.24414062 25.2578125 C14.16286636 25.16149052 7.08150395 25.07794058 0 25 C0 16.75 0 8.5 0 0 Z " fill="#fff" transform="translate(338,35)"/>
<path d="M0 0 C1.89128128 0.0001133 1.89128128 0.0001133 3.82077026 0.00022888 C5.18145793 0.0053343 6.54214518 0.01055028 7.90283203 0.01586914 C9.30673166 0.01773627 10.71063195 0.01915878 12.11453247 0.02015686 C15.79371975 0.02395881 19.47286701 0.03376907 23.15203857 0.04486084 C26.91271422 0.05512508 30.67339639 0.05966519 34.43408203 0.06469727 C41.80128982 0.0753936 49.16845644 0.09297138 56.53564453 0.11352539 C56.53564453 8.36352539 56.53564453 16.61352539 56.53564453 25.11352539 C53.88166626 25.12754395 53.88166626 25.12754395 51.17407227 25.1418457 C45.26671889 25.17765691 39.35967395 25.23163065 33.45258999 25.29742813 C29.87812654 25.33660123 26.30389833 25.36893465 22.72924805 25.38452148 C19.26648709 25.39989077 15.80437424 25.43468149 12.34190559 25.48183441 C10.40654076 25.50345441 8.47099187 25.50598154 6.5355072 25.50787354 C-11.83861296 25.8048186 -27.85086555 31.9066664 -41.21826172 44.70336914 C-56.90780923 61.53893578 -60.40680957 80.46502651 -60.78076172 102.68774414 C-60.80154282 103.73758987 -60.82232391 104.78743561 -60.84373474 105.86909485 C-60.90843518 109.17968028 -60.96774032 112.490336 -61.02685547 115.80102539 C-61.07011656 118.06340207 -61.11373309 120.32577198 -61.15771484 122.58813477 C-61.26469353 128.0965278 -61.36435491 133.60498371 -61.46435547 139.11352539 C-69.38435547 139.11352539 -77.30435547 139.11352539 -85.46435547 139.11352539 C-85.57852734 131.35791769 -85.66973146 123.60279144 -85.72341633 115.84656811 C-85.74921719 112.24276539 -85.78405257 108.63958021 -85.84155273 105.03613281 C-86.33475324 73.26651163 -80.7831372 48.5323488 -58.65185547 24.86352539 C-43.37185734 10.34752717 -21.24101259 -0.04265264 0 0 Z " fill="#fff" transform="translate(117.46435546875,34.886474609375)"/>
</svg>
