<svg width="20" height="20" viewBox="0 0 20 20" fill="none" xmlns="http://www.w3.org/2000/svg">
<path d="M15.2258 3.73208C15.3272 3.8226 15.4264 3.91501 15.525 4.00869C15.6229 4.10228 15.6229 4.10228 15.7276 4.1834C15.8685 4.2968 15.9766 4.43273 16.0934 4.57021C16.1253 4.60601 16.1571 4.64182 16.19 4.6787C16.4936 5.0227 16.7483 5.39276 16.9918 5.78115C17.0078 5.80645 17.0238 5.83176 17.0403 5.85782C17.4842 6.56903 17.7793 7.38886 17.9684 8.20302C17.9765 8.23733 17.9847 8.27164 17.9931 8.30699C18.2428 9.40955 18.2341 10.6999 17.9684 11.7968C17.9592 11.835 17.9499 11.8733 17.9404 11.9127C17.6027 13.263 16.965 14.4265 16.0543 15.4686C16.0261 15.5017 15.9978 15.5348 15.9687 15.5689C15.8017 15.7621 15.6247 15.9296 15.4293 16.0936C15.3937 16.1253 15.3581 16.157 15.3214 16.1896C14.0019 17.3551 12.2007 18.1168 10.4305 18.1342C10.3981 18.1346 10.3657 18.135 10.3323 18.1354C9.60906 18.1421 8.91036 18.1368 8.20276 17.9686C8.14973 17.9561 8.14973 17.9561 8.09562 17.9433C7.50743 17.7987 6.90869 17.6016 6.38147 17.2997C6.25603 17.2357 6.18551 17.2178 6.04812 17.2493C6.01373 17.2571 5.97933 17.265 5.94389 17.2731C5.70238 17.3345 5.46178 17.3989 5.22147 17.4648C5.08667 17.5017 4.95175 17.5381 4.81683 17.5746C4.56657 17.6422 4.31637 17.7101 4.06637 17.7787C3.89155 17.8267 3.71657 17.8741 3.54149 17.9211C3.47531 17.939 3.40919 17.9571 3.34313 17.9754C2.46633 18.2183 2.46633 18.2183 2.12854 18.0614C1.88654 17.8315 1.88654 17.8315 1.86272 17.6369C1.8563 17.3106 1.9284 17.0446 2.03729 16.7389C2.05431 16.6896 2.07126 16.6401 2.08816 16.5907C2.13251 16.4615 2.17773 16.3326 2.22313 16.2037C2.26848 16.0745 2.31298 15.945 2.35758 15.8156C2.62826 15.0317 2.62826 15.0317 2.73626 14.747C2.75355 14.7007 2.75355 14.7007 2.7712 14.6535C2.7917 14.599 2.81272 14.5447 2.83443 14.4907C2.87747 14.3759 2.89399 14.3105 2.8614 14.1906C2.80603 14.0904 2.75013 13.9906 2.69216 13.8919C2.12256 12.9206 1.87415 11.8221 1.86533 10.7017C1.86494 10.6615 1.86456 10.6213 1.86416 10.5799C1.85144 8.90762 1.85144 8.90762 2.03089 8.20302C2.04031 8.1648 2.04974 8.12657 2.05946 8.08719C2.40092 6.73702 3.0267 5.57287 3.94495 4.53115C3.9731 4.49822 4.00124 4.46529 4.03024 4.43136C4.19733 4.23789 4.37446 4.07033 4.56995 3.90615C4.60555 3.87448 4.64115 3.8428 4.67783 3.81017C5.02196 3.50622 5.39225 3.25143 5.78088 3.00771C5.80619 2.9917 5.83149 2.97569 5.85756 2.95919C8.69867 1.1861 12.7066 1.55808 15.2258 3.73208ZM5.85901 4.53115C5.82422 4.55728 5.78942 4.58342 5.75357 4.61034C4.3264 5.72179 3.44204 7.34727 3.18195 9.12664C3.15939 9.31209 3.15667 9.49632 3.15576 9.68297C3.15554 9.7196 3.15532 9.75623 3.15509 9.79397C3.15472 9.87142 3.15446 9.94886 3.15431 10.0263C3.15394 10.1418 3.15273 10.2574 3.15149 10.3729C3.1479 11.0129 3.18833 11.6642 3.38587 12.2777C3.39582 12.3095 3.40578 12.3413 3.41604 12.3741C3.58097 12.8788 3.83792 13.3157 4.14011 13.7494C4.25995 13.9296 4.28228 14.085 4.25745 14.2968C4.21287 14.4689 4.15426 14.6355 4.09509 14.8031C4.06993 14.8763 4.04477 14.9495 4.01961 15.0227C3.9845 15.1245 3.94894 15.2261 3.9134 15.3277C3.85097 15.5065 3.78926 15.6855 3.72753 15.8646C3.69466 15.9597 3.66163 16.0549 3.62842 16.1499C3.60613 16.2141 3.60613 16.2141 3.58339 16.2796C3.57021 16.3173 3.55702 16.355 3.54344 16.3939C3.51138 16.4809 3.51138 16.4809 3.51526 16.5624C3.89326 16.4781 4.26752 16.3838 4.6406 16.2798C4.6807 16.2687 4.7208 16.2575 4.76212 16.2461C4.92825 16.1999 5.09434 16.1537 5.26025 16.1067C5.38316 16.072 5.50624 16.0379 5.62937 16.0039C5.66628 15.9933 5.70319 15.9827 5.74123 15.9718C6.05978 15.8847 6.36722 15.8332 6.66768 15.9956C6.69166 16.0094 6.71565 16.0232 6.74036 16.0375C6.79468 16.0665 6.84911 16.0954 6.90363 16.124C6.94492 16.1459 6.94492 16.1459 6.98705 16.1682C8.60222 16.9981 10.496 17.0535 12.2086 16.5139C12.9055 16.2803 13.5629 15.9224 14.1403 15.4686C14.175 15.4426 14.2096 15.4165 14.2454 15.3896C15.671 14.2806 16.5653 12.6485 16.8173 10.8685C16.8367 10.7094 16.8425 10.5512 16.8435 10.391C16.8439 10.3478 16.8439 10.3478 16.8443 10.3038C16.8548 9.4224 16.8548 9.4224 16.7184 8.55459C16.7106 8.5224 16.7029 8.49022 16.6949 8.45706C16.46 7.50879 16.0607 6.63577 15.4684 5.85927C15.4421 5.82418 15.4158 5.78908 15.3887 5.75292C14.4695 4.5764 13.1938 3.74982 11.7574 3.35927C11.7296 3.35148 11.7017 3.34368 11.6729 3.33564C9.70236 2.7971 7.46157 3.28243 5.85901 4.53115Z" fill="black"/>
</svg>
